<mxfile host="app.diagrams.net" agent="Mozilla/5.0 (Windows NT 10.0; Win64; x64) AppleWebKit/537.36 (KHTML, like Gecko) Chrome/127.0.0.0 Safari/537.36" version="24.8.3">
  <diagram id="C5RBs43oDa-KdzZeNtuy" name="Page-1">
    <mxGraphModel dx="2460" dy="507" grid="1" gridSize="10" guides="1" tooltips="1" connect="1" arrows="1" fold="1" page="1" pageScale="1" pageWidth="827" pageHeight="1169" math="0" shadow="0">
      <root>
        <mxCell id="WIyWlLk6GJQsqaUBKTNV-0" />
        <mxCell id="WIyWlLk6GJQsqaUBKTNV-1" parent="WIyWlLk6GJQsqaUBKTNV-0" />
        <mxCell id="ffXKYrWZo1lp8m5zjBYC-16" style="edgeStyle=orthogonalEdgeStyle;rounded=0;orthogonalLoop=1;jettySize=auto;html=1;exitX=0.5;exitY=1;exitDx=0;exitDy=0;entryX=0.5;entryY=0;entryDx=0;entryDy=0;" edge="1" parent="WIyWlLk6GJQsqaUBKTNV-1" source="ffXKYrWZo1lp8m5zjBYC-0" target="ffXKYrWZo1lp8m5zjBYC-15">
          <mxGeometry relative="1" as="geometry" />
        </mxCell>
        <mxCell id="ffXKYrWZo1lp8m5zjBYC-0" value="当前某号摄像枪检测到吸烟行为" style="rounded=1;whiteSpace=wrap;html=1;" vertex="1" parent="WIyWlLk6GJQsqaUBKTNV-1">
          <mxGeometry x="210" y="320" width="120" height="60" as="geometry" />
        </mxCell>
        <mxCell id="ffXKYrWZo1lp8m5zjBYC-8" style="edgeStyle=orthogonalEdgeStyle;rounded=0;orthogonalLoop=1;jettySize=auto;html=1;exitX=0.5;exitY=1;exitDx=0;exitDy=0;entryX=0.5;entryY=0;entryDx=0;entryDy=0;" edge="1" parent="WIyWlLk6GJQsqaUBKTNV-1" source="ffXKYrWZo1lp8m5zjBYC-5" target="ffXKYrWZo1lp8m5zjBYC-0">
          <mxGeometry relative="1" as="geometry" />
        </mxCell>
        <mxCell id="ffXKYrWZo1lp8m5zjBYC-5" value="1号摄像枪行为检测" style="rounded=1;whiteSpace=wrap;html=1;" vertex="1" parent="WIyWlLk6GJQsqaUBKTNV-1">
          <mxGeometry x="-10" y="170" width="120" height="60" as="geometry" />
        </mxCell>
        <mxCell id="ffXKYrWZo1lp8m5zjBYC-9" style="edgeStyle=orthogonalEdgeStyle;rounded=0;orthogonalLoop=1;jettySize=auto;html=1;exitX=0.5;exitY=1;exitDx=0;exitDy=0;entryX=0.5;entryY=0;entryDx=0;entryDy=0;" edge="1" parent="WIyWlLk6GJQsqaUBKTNV-1" source="ffXKYrWZo1lp8m5zjBYC-6" target="ffXKYrWZo1lp8m5zjBYC-0">
          <mxGeometry relative="1" as="geometry" />
        </mxCell>
        <mxCell id="ffXKYrWZo1lp8m5zjBYC-6" value="2号摄像枪行为检测" style="rounded=1;whiteSpace=wrap;html=1;" vertex="1" parent="WIyWlLk6GJQsqaUBKTNV-1">
          <mxGeometry x="210" y="170" width="120" height="60" as="geometry" />
        </mxCell>
        <mxCell id="ffXKYrWZo1lp8m5zjBYC-10" style="edgeStyle=orthogonalEdgeStyle;rounded=0;orthogonalLoop=1;jettySize=auto;html=1;exitX=0.5;exitY=1;exitDx=0;exitDy=0;entryX=0.5;entryY=0;entryDx=0;entryDy=0;" edge="1" parent="WIyWlLk6GJQsqaUBKTNV-1" source="ffXKYrWZo1lp8m5zjBYC-7" target="ffXKYrWZo1lp8m5zjBYC-0">
          <mxGeometry relative="1" as="geometry" />
        </mxCell>
        <mxCell id="ffXKYrWZo1lp8m5zjBYC-7" value="n号摄像枪行为检测" style="rounded=1;whiteSpace=wrap;html=1;" vertex="1" parent="WIyWlLk6GJQsqaUBKTNV-1">
          <mxGeometry x="430" y="170" width="120" height="60" as="geometry" />
        </mxCell>
        <mxCell id="ffXKYrWZo1lp8m5zjBYC-25" style="edgeStyle=orthogonalEdgeStyle;rounded=0;orthogonalLoop=1;jettySize=auto;html=1;exitX=0.5;exitY=1;exitDx=0;exitDy=0;entryX=0.5;entryY=0;entryDx=0;entryDy=0;" edge="1" parent="WIyWlLk6GJQsqaUBKTNV-1" source="ffXKYrWZo1lp8m5zjBYC-15" target="ffXKYrWZo1lp8m5zjBYC-23">
          <mxGeometry relative="1" as="geometry" />
        </mxCell>
        <mxCell id="ffXKYrWZo1lp8m5zjBYC-26" style="edgeStyle=orthogonalEdgeStyle;rounded=0;orthogonalLoop=1;jettySize=auto;html=1;exitX=0.5;exitY=1;exitDx=0;exitDy=0;entryX=0.5;entryY=0;entryDx=0;entryDy=0;" edge="1" parent="WIyWlLk6GJQsqaUBKTNV-1" source="ffXKYrWZo1lp8m5zjBYC-15" target="ffXKYrWZo1lp8m5zjBYC-24">
          <mxGeometry relative="1" as="geometry" />
        </mxCell>
        <mxCell id="ffXKYrWZo1lp8m5zjBYC-15" value="进行人脸识别与相似度计算" style="rhombus;whiteSpace=wrap;html=1;" vertex="1" parent="WIyWlLk6GJQsqaUBKTNV-1">
          <mxGeometry x="185" y="430" width="170" height="85" as="geometry" />
        </mxCell>
        <mxCell id="ffXKYrWZo1lp8m5zjBYC-37" style="edgeStyle=orthogonalEdgeStyle;rounded=0;orthogonalLoop=1;jettySize=auto;html=1;exitX=0.5;exitY=1;exitDx=0;exitDy=0;entryX=0.5;entryY=0;entryDx=0;entryDy=0;" edge="1" parent="WIyWlLk6GJQsqaUBKTNV-1" source="ffXKYrWZo1lp8m5zjBYC-23" target="ffXKYrWZo1lp8m5zjBYC-36">
          <mxGeometry relative="1" as="geometry" />
        </mxCell>
        <mxCell id="ffXKYrWZo1lp8m5zjBYC-23" value="人脸匹配成功" style="rounded=1;whiteSpace=wrap;html=1;" vertex="1" parent="WIyWlLk6GJQsqaUBKTNV-1">
          <mxGeometry x="-10" y="590" width="120" height="60" as="geometry" />
        </mxCell>
        <mxCell id="ffXKYrWZo1lp8m5zjBYC-47" style="edgeStyle=orthogonalEdgeStyle;rounded=0;orthogonalLoop=1;jettySize=auto;html=1;exitX=0.5;exitY=1;exitDx=0;exitDy=0;entryX=0.5;entryY=0;entryDx=0;entryDy=0;" edge="1" parent="WIyWlLk6GJQsqaUBKTNV-1" source="ffXKYrWZo1lp8m5zjBYC-24" target="ffXKYrWZo1lp8m5zjBYC-46">
          <mxGeometry relative="1" as="geometry" />
        </mxCell>
        <mxCell id="ffXKYrWZo1lp8m5zjBYC-24" value="人脸匹配失败" style="rounded=1;whiteSpace=wrap;html=1;" vertex="1" parent="WIyWlLk6GJQsqaUBKTNV-1">
          <mxGeometry x="430" y="590" width="120" height="60" as="geometry" />
        </mxCell>
        <mxCell id="ffXKYrWZo1lp8m5zjBYC-42" style="edgeStyle=orthogonalEdgeStyle;rounded=0;orthogonalLoop=1;jettySize=auto;html=1;exitX=0.5;exitY=1;exitDx=0;exitDy=0;" edge="1" parent="WIyWlLk6GJQsqaUBKTNV-1" source="ffXKYrWZo1lp8m5zjBYC-36" target="ffXKYrWZo1lp8m5zjBYC-39">
          <mxGeometry relative="1" as="geometry" />
        </mxCell>
        <mxCell id="ffXKYrWZo1lp8m5zjBYC-43" style="edgeStyle=orthogonalEdgeStyle;rounded=0;orthogonalLoop=1;jettySize=auto;html=1;exitX=0.5;exitY=1;exitDx=0;exitDy=0;entryX=0.5;entryY=0;entryDx=0;entryDy=0;" edge="1" parent="WIyWlLk6GJQsqaUBKTNV-1" source="ffXKYrWZo1lp8m5zjBYC-36" target="ffXKYrWZo1lp8m5zjBYC-40">
          <mxGeometry relative="1" as="geometry" />
        </mxCell>
        <mxCell id="ffXKYrWZo1lp8m5zjBYC-36" value="信息记录，判断行为持续时间" style="rhombus;whiteSpace=wrap;html=1;" vertex="1" parent="WIyWlLk6GJQsqaUBKTNV-1">
          <mxGeometry x="-35" y="687.5" width="170" height="85" as="geometry" />
        </mxCell>
        <mxCell id="ffXKYrWZo1lp8m5zjBYC-54" style="edgeStyle=orthogonalEdgeStyle;rounded=0;orthogonalLoop=1;jettySize=auto;html=1;exitX=0;exitY=0.5;exitDx=0;exitDy=0;entryX=0;entryY=0.5;entryDx=0;entryDy=0;" edge="1" parent="WIyWlLk6GJQsqaUBKTNV-1" source="ffXKYrWZo1lp8m5zjBYC-39" target="ffXKYrWZo1lp8m5zjBYC-15">
          <mxGeometry relative="1" as="geometry" />
        </mxCell>
        <mxCell id="ffXKYrWZo1lp8m5zjBYC-39" value="行为持续时间没到" style="rounded=1;whiteSpace=wrap;html=1;" vertex="1" parent="WIyWlLk6GJQsqaUBKTNV-1">
          <mxGeometry x="-100" y="840" width="120" height="60" as="geometry" />
        </mxCell>
        <mxCell id="ffXKYrWZo1lp8m5zjBYC-45" value="" style="edgeStyle=orthogonalEdgeStyle;rounded=0;orthogonalLoop=1;jettySize=auto;html=1;" edge="1" parent="WIyWlLk6GJQsqaUBKTNV-1" source="ffXKYrWZo1lp8m5zjBYC-40" target="ffXKYrWZo1lp8m5zjBYC-44">
          <mxGeometry relative="1" as="geometry" />
        </mxCell>
        <mxCell id="ffXKYrWZo1lp8m5zjBYC-40" value="行为持续时间到达" style="rounded=1;whiteSpace=wrap;html=1;" vertex="1" parent="WIyWlLk6GJQsqaUBKTNV-1">
          <mxGeometry x="72.5" y="840" width="120" height="60" as="geometry" />
        </mxCell>
        <mxCell id="ffXKYrWZo1lp8m5zjBYC-74" value="" style="edgeStyle=orthogonalEdgeStyle;rounded=0;orthogonalLoop=1;jettySize=auto;html=1;" edge="1" parent="WIyWlLk6GJQsqaUBKTNV-1" source="ffXKYrWZo1lp8m5zjBYC-44" target="ffXKYrWZo1lp8m5zjBYC-73">
          <mxGeometry relative="1" as="geometry" />
        </mxCell>
        <mxCell id="ffXKYrWZo1lp8m5zjBYC-44" value="根据用户设置间隔时间，该时间内与其它路的信息进行汇总过滤，确认最终上报结果" style="rounded=1;whiteSpace=wrap;html=1;" vertex="1" parent="WIyWlLk6GJQsqaUBKTNV-1">
          <mxGeometry x="51.25" y="960" width="162.5" height="80" as="geometry" />
        </mxCell>
        <mxCell id="ffXKYrWZo1lp8m5zjBYC-51" style="edgeStyle=orthogonalEdgeStyle;rounded=0;orthogonalLoop=1;jettySize=auto;html=1;exitX=0.5;exitY=1;exitDx=0;exitDy=0;entryX=0.5;entryY=0;entryDx=0;entryDy=0;" edge="1" parent="WIyWlLk6GJQsqaUBKTNV-1" source="ffXKYrWZo1lp8m5zjBYC-46" target="ffXKYrWZo1lp8m5zjBYC-49">
          <mxGeometry relative="1" as="geometry" />
        </mxCell>
        <mxCell id="ffXKYrWZo1lp8m5zjBYC-58" style="edgeStyle=orthogonalEdgeStyle;rounded=0;orthogonalLoop=1;jettySize=auto;html=1;exitX=0.5;exitY=1;exitDx=0;exitDy=0;entryX=0.5;entryY=0;entryDx=0;entryDy=0;" edge="1" parent="WIyWlLk6GJQsqaUBKTNV-1" source="ffXKYrWZo1lp8m5zjBYC-46" target="ffXKYrWZo1lp8m5zjBYC-56">
          <mxGeometry relative="1" as="geometry" />
        </mxCell>
        <mxCell id="ffXKYrWZo1lp8m5zjBYC-46" value="信息记录，判断行为持续时间" style="rhombus;whiteSpace=wrap;html=1;" vertex="1" parent="WIyWlLk6GJQsqaUBKTNV-1">
          <mxGeometry x="405" y="687.5" width="170" height="85" as="geometry" />
        </mxCell>
        <mxCell id="ffXKYrWZo1lp8m5zjBYC-55" style="edgeStyle=orthogonalEdgeStyle;rounded=0;orthogonalLoop=1;jettySize=auto;html=1;exitX=1;exitY=0.5;exitDx=0;exitDy=0;entryX=1;entryY=0.5;entryDx=0;entryDy=0;" edge="1" parent="WIyWlLk6GJQsqaUBKTNV-1" source="ffXKYrWZo1lp8m5zjBYC-49" target="ffXKYrWZo1lp8m5zjBYC-15">
          <mxGeometry relative="1" as="geometry" />
        </mxCell>
        <mxCell id="ffXKYrWZo1lp8m5zjBYC-49" value="行为持续时间没到" style="rounded=1;whiteSpace=wrap;html=1;" vertex="1" parent="WIyWlLk6GJQsqaUBKTNV-1">
          <mxGeometry x="520" y="840" width="120" height="60" as="geometry" />
        </mxCell>
        <mxCell id="ffXKYrWZo1lp8m5zjBYC-61" style="edgeStyle=orthogonalEdgeStyle;rounded=0;orthogonalLoop=1;jettySize=auto;html=1;exitX=0.5;exitY=1;exitDx=0;exitDy=0;entryX=0.5;entryY=0;entryDx=0;entryDy=0;" edge="1" parent="WIyWlLk6GJQsqaUBKTNV-1" source="ffXKYrWZo1lp8m5zjBYC-56" target="ffXKYrWZo1lp8m5zjBYC-59">
          <mxGeometry relative="1" as="geometry" />
        </mxCell>
        <mxCell id="ffXKYrWZo1lp8m5zjBYC-62" style="edgeStyle=orthogonalEdgeStyle;rounded=0;orthogonalLoop=1;jettySize=auto;html=1;exitX=0.5;exitY=1;exitDx=0;exitDy=0;entryX=0.5;entryY=0;entryDx=0;entryDy=0;" edge="1" parent="WIyWlLk6GJQsqaUBKTNV-1" source="ffXKYrWZo1lp8m5zjBYC-56" target="ffXKYrWZo1lp8m5zjBYC-60">
          <mxGeometry relative="1" as="geometry" />
        </mxCell>
        <mxCell id="ffXKYrWZo1lp8m5zjBYC-56" value="行为持续时间到达" style="rhombus;whiteSpace=wrap;html=1;" vertex="1" parent="WIyWlLk6GJQsqaUBKTNV-1">
          <mxGeometry x="310" y="840" width="170" height="85" as="geometry" />
        </mxCell>
        <mxCell id="ffXKYrWZo1lp8m5zjBYC-75" style="edgeStyle=orthogonalEdgeStyle;rounded=0;orthogonalLoop=1;jettySize=auto;html=1;exitX=0.5;exitY=1;exitDx=0;exitDy=0;entryX=0.5;entryY=0;entryDx=0;entryDy=0;" edge="1" parent="WIyWlLk6GJQsqaUBKTNV-1" source="ffXKYrWZo1lp8m5zjBYC-59" target="ffXKYrWZo1lp8m5zjBYC-73">
          <mxGeometry relative="1" as="geometry" />
        </mxCell>
        <mxCell id="ffXKYrWZo1lp8m5zjBYC-59" value="有记录，在用户设置间隔时间内，与其它路做协同过滤，确认结果" style="rounded=1;whiteSpace=wrap;html=1;" vertex="1" parent="WIyWlLk6GJQsqaUBKTNV-1">
          <mxGeometry x="250" y="970" width="140" height="70" as="geometry" />
        </mxCell>
        <mxCell id="ffXKYrWZo1lp8m5zjBYC-60" value="无有效记录，直接清空，进行下一个周期" style="rounded=1;whiteSpace=wrap;html=1;" vertex="1" parent="WIyWlLk6GJQsqaUBKTNV-1">
          <mxGeometry x="440" y="970" width="145" height="70" as="geometry" />
        </mxCell>
        <mxCell id="ffXKYrWZo1lp8m5zjBYC-70" style="edgeStyle=orthogonalEdgeStyle;rounded=0;orthogonalLoop=1;jettySize=auto;html=1;exitX=0.5;exitY=0;exitDx=0;exitDy=0;entryX=0;entryY=0.5;entryDx=0;entryDy=0;" edge="1" parent="WIyWlLk6GJQsqaUBKTNV-1" source="ffXKYrWZo1lp8m5zjBYC-63" target="ffXKYrWZo1lp8m5zjBYC-66">
          <mxGeometry relative="1" as="geometry" />
        </mxCell>
        <mxCell id="ffXKYrWZo1lp8m5zjBYC-72" style="edgeStyle=orthogonalEdgeStyle;rounded=0;orthogonalLoop=1;jettySize=auto;html=1;exitX=0.5;exitY=1;exitDx=0;exitDy=0;entryX=0;entryY=0.5;entryDx=0;entryDy=0;" edge="1" parent="WIyWlLk6GJQsqaUBKTNV-1" source="ffXKYrWZo1lp8m5zjBYC-63" target="ffXKYrWZo1lp8m5zjBYC-68">
          <mxGeometry relative="1" as="geometry" />
        </mxCell>
        <mxCell id="ffXKYrWZo1lp8m5zjBYC-63" value="事件上报" style="rounded=1;whiteSpace=wrap;html=1;" vertex="1" parent="WIyWlLk6GJQsqaUBKTNV-1">
          <mxGeometry x="-1330" y="430" width="120" height="60" as="geometry" />
        </mxCell>
        <mxCell id="ffXKYrWZo1lp8m5zjBYC-66" value="有效记录全部进行上报" style="rounded=1;whiteSpace=wrap;html=1;" vertex="1" parent="WIyWlLk6GJQsqaUBKTNV-1">
          <mxGeometry x="-1161" y="330" width="120" height="60" as="geometry" />
        </mxCell>
        <mxCell id="ffXKYrWZo1lp8m5zjBYC-68" value="根据结果找出最大责任人" style="rounded=1;whiteSpace=wrap;html=1;" vertex="1" parent="WIyWlLk6GJQsqaUBKTNV-1">
          <mxGeometry x="-1160" y="515" width="120" height="60" as="geometry" />
        </mxCell>
        <mxCell id="ffXKYrWZo1lp8m5zjBYC-77" value="" style="edgeStyle=orthogonalEdgeStyle;rounded=0;orthogonalLoop=1;jettySize=auto;html=1;" edge="1" parent="WIyWlLk6GJQsqaUBKTNV-1" source="ffXKYrWZo1lp8m5zjBYC-73" target="ffXKYrWZo1lp8m5zjBYC-76">
          <mxGeometry relative="1" as="geometry" />
        </mxCell>
        <mxCell id="ffXKYrWZo1lp8m5zjBYC-79" style="edgeStyle=orthogonalEdgeStyle;rounded=0;orthogonalLoop=1;jettySize=auto;html=1;exitX=0.5;exitY=1;exitDx=0;exitDy=0;entryX=0.5;entryY=0;entryDx=0;entryDy=0;" edge="1" parent="WIyWlLk6GJQsqaUBKTNV-1" source="ffXKYrWZo1lp8m5zjBYC-73" target="ffXKYrWZo1lp8m5zjBYC-78">
          <mxGeometry relative="1" as="geometry" />
        </mxCell>
        <mxCell id="ffXKYrWZo1lp8m5zjBYC-73" value="事件上报" style="whiteSpace=wrap;html=1;rounded=1;" vertex="1" parent="WIyWlLk6GJQsqaUBKTNV-1">
          <mxGeometry x="170" y="1109" width="120" height="60" as="geometry" />
        </mxCell>
        <mxCell id="ffXKYrWZo1lp8m5zjBYC-76" value="有效记录全部进行上报" style="whiteSpace=wrap;html=1;rounded=1;" vertex="1" parent="WIyWlLk6GJQsqaUBKTNV-1">
          <mxGeometry x="80" y="1220" width="120" height="60" as="geometry" />
        </mxCell>
        <mxCell id="ffXKYrWZo1lp8m5zjBYC-78" value="根据结果找出最大责任人" style="whiteSpace=wrap;html=1;rounded=1;" vertex="1" parent="WIyWlLk6GJQsqaUBKTNV-1">
          <mxGeometry x="260" y="1220" width="120" height="60" as="geometry" />
        </mxCell>
      </root>
    </mxGraphModel>
  </diagram>
</mxfile>
